<svg xmlns="http://www.w3.org/2000/svg" height="909.333" viewBox="-21 -35 682.667 682" width="909.333"  xmlns:v="https://vecta.io/nano"><path d="M77.613-.668C30.684-.668 0 30.148 0 70.652c0 39.609 29.77 71.305 75.813 71.305h.891c47.848 0 77.625-31.695 77.625-71.305-.895-40.504-29.777-71.32-76.715-71.32zM8.109 198.313h137.195V611.07H8.109zm473.946-9.688c-74.012 0-123.641 69.547-123.641 69.547v-59.859H221.215V611.07h137.191v-230.5c0-12.34.895-24.66 4.52-33.484 9.918-24.641 32.488-50.168 70.391-50.168 49.645 0 69.5 37.852 69.5 93.34V611.07H640V374.402c0-126.781-67.687-185.777-157.945-185.777zm0 0"/></svg>